<mxfile host="app.diagrams.net" agent="Mozilla/5.0 (Macintosh; Intel Mac OS X 10_15_7) AppleWebKit/537.36 (KHTML, like Gecko) Chrome/136.0.0.0 Safari/537.36" version="27.0.4">
  <diagram name="Page-1" id="RDK0dct8T96AZ4ZL_drc">
    <mxGraphModel dx="695" dy="386" grid="1" gridSize="10" guides="1" tooltips="1" connect="1" arrows="1" fold="1" page="1" pageScale="1" pageWidth="216" pageHeight="384" math="0" shadow="0">
      <root>
        <mxCell id="0" />
        <mxCell id="1" parent="0" />
        <mxCell id="Jli_QhJXIMFWZJy_9Ah_-1" value="" style="ellipse;whiteSpace=wrap;html=1;aspect=fixed;gradientColor=none;fontSize=4;" vertex="1" parent="1">
          <mxGeometry x="122.5" width="20" height="20" as="geometry" />
        </mxCell>
        <mxCell id="Jli_QhJXIMFWZJy_9Ah_-2" value="" style="ellipse;whiteSpace=wrap;html=1;aspect=fixed;" vertex="1" parent="1">
          <mxGeometry x="122.5" y="70" width="20" height="20" as="geometry" />
        </mxCell>
        <mxCell id="Jli_QhJXIMFWZJy_9Ah_-3" value="" style="ellipse;whiteSpace=wrap;html=1;aspect=fixed;shadow=0;" vertex="1" parent="1">
          <mxGeometry x="122.5" y="359" width="25" height="25" as="geometry" />
        </mxCell>
        <mxCell id="Jli_QhJXIMFWZJy_9Ah_-4" value="" style="ellipse;whiteSpace=wrap;html=1;aspect=fixed;" vertex="1" parent="1">
          <mxGeometry x="125" y="280" width="20" height="20" as="geometry" />
        </mxCell>
        <mxCell id="Jli_QhJXIMFWZJy_9Ah_-5" value="" style="ellipse;whiteSpace=wrap;html=1;aspect=fixed;" vertex="1" parent="1">
          <mxGeometry x="110" y="220" width="20" height="20" as="geometry" />
        </mxCell>
        <mxCell id="Jli_QhJXIMFWZJy_9Ah_-6" value="" style="ellipse;whiteSpace=wrap;html=1;aspect=fixed;" vertex="1" parent="1">
          <mxGeometry x="45" y="220" width="20" height="20" as="geometry" />
        </mxCell>
        <mxCell id="Jli_QhJXIMFWZJy_9Ah_-7" value="" style="ellipse;whiteSpace=wrap;html=1;aspect=fixed;" vertex="1" parent="1">
          <mxGeometry x="110" y="140" width="20" height="20" as="geometry" />
        </mxCell>
        <mxCell id="Jli_QhJXIMFWZJy_9Ah_-8" value="" style="ellipse;whiteSpace=wrap;html=1;aspect=fixed;" vertex="1" parent="1">
          <mxGeometry x="45" y="140" width="20" height="20" as="geometry" />
        </mxCell>
        <mxCell id="Jli_QhJXIMFWZJy_9Ah_-9" value="a" style="rounded=0;whiteSpace=wrap;html=1;spacing=2;strokeWidth=1;" vertex="1" parent="1">
          <mxGeometry x="117.5" y="30" width="30" height="20" as="geometry" />
        </mxCell>
        <mxCell id="Jli_QhJXIMFWZJy_9Ah_-10" value="" style="rounded=0;whiteSpace=wrap;html=1;spacing=2;strokeWidth=1;fillColor=#000000;" vertex="1" parent="1">
          <mxGeometry x="120" y="320" width="30" height="20" as="geometry" />
        </mxCell>
        <mxCell id="Jli_QhJXIMFWZJy_9Ah_-12" value="b" style="rounded=0;whiteSpace=wrap;html=1;spacing=2;strokeWidth=1;" vertex="1" parent="1">
          <mxGeometry x="175" y="180" width="30" height="20" as="geometry" />
        </mxCell>
        <mxCell id="Jli_QhJXIMFWZJy_9Ah_-15" value="" style="endArrow=classic;html=1;rounded=0;exitX=0.5;exitY=1;exitDx=0;exitDy=0;entryX=0.5;entryY=0;entryDx=0;entryDy=0;jumpStyle=arc;edgeStyle=orthogonalEdgeStyle;curved=1;" edge="1" parent="1" source="Jli_QhJXIMFWZJy_9Ah_-2" target="Jli_QhJXIMFWZJy_9Ah_-12">
          <mxGeometry width="50" height="50" relative="1" as="geometry">
            <mxPoint x="112.5" y="200" as="sourcePoint" />
            <mxPoint x="162.5" y="150" as="targetPoint" />
            <Array as="points">
              <mxPoint x="190.5" y="100" />
              <mxPoint x="190.5" y="180" />
            </Array>
          </mxGeometry>
        </mxCell>
        <mxCell id="Jli_QhJXIMFWZJy_9Ah_-17" value="" style="endArrow=classic;html=1;rounded=0;exitX=0.5;exitY=1;exitDx=0;exitDy=0;entryX=1;entryY=0.5;entryDx=0;entryDy=0;jumpStyle=arc;edgeStyle=orthogonalEdgeStyle;curved=1;" edge="1" parent="1" source="Jli_QhJXIMFWZJy_9Ah_-12" target="Jli_QhJXIMFWZJy_9Ah_-4">
          <mxGeometry width="50" height="50" relative="1" as="geometry">
            <mxPoint x="170" y="230" as="sourcePoint" />
            <mxPoint x="225" y="300" as="targetPoint" />
            <Array as="points">
              <mxPoint x="190" y="290" />
            </Array>
          </mxGeometry>
        </mxCell>
        <mxCell id="Jli_QhJXIMFWZJy_9Ah_-18" value="c" style="rounded=0;whiteSpace=wrap;html=1;spacing=2;strokeWidth=1;" vertex="1" parent="1">
          <mxGeometry x="105" y="180" width="30" height="20" as="geometry" />
        </mxCell>
        <mxCell id="Jli_QhJXIMFWZJy_9Ah_-19" value="d" style="rounded=0;whiteSpace=wrap;html=1;spacing=2;strokeWidth=1;" vertex="1" parent="1">
          <mxGeometry x="40" y="180" width="30" height="20" as="geometry" />
        </mxCell>
        <mxCell id="Jli_QhJXIMFWZJy_9Ah_-20" value="" style="rounded=0;whiteSpace=wrap;html=1;spacing=2;strokeWidth=1;fillColor=#000000;" vertex="1" parent="1">
          <mxGeometry x="75" y="250" width="30" height="20" as="geometry" />
        </mxCell>
        <mxCell id="Jli_QhJXIMFWZJy_9Ah_-21" value="" style="endArrow=classic;html=1;rounded=0;exitX=0.5;exitY=1;exitDx=0;exitDy=0;entryX=0.5;entryY=0;entryDx=0;entryDy=0;" edge="1" parent="1" source="Jli_QhJXIMFWZJy_9Ah_-19" target="Jli_QhJXIMFWZJy_9Ah_-6">
          <mxGeometry width="50" height="50" relative="1" as="geometry">
            <mxPoint x="75" y="220" as="sourcePoint" />
            <mxPoint x="125" y="170" as="targetPoint" />
          </mxGeometry>
        </mxCell>
        <mxCell id="Jli_QhJXIMFWZJy_9Ah_-22" value="" style="rounded=0;whiteSpace=wrap;html=1;spacing=2;strokeWidth=1;fillColor=#000000;" vertex="1" parent="1">
          <mxGeometry x="70" y="100" width="30" height="20" as="geometry" />
        </mxCell>
        <mxCell id="Jli_QhJXIMFWZJy_9Ah_-24" value="" style="rounded=0;whiteSpace=wrap;html=1;spacing=2;strokeWidth=1;fillColor=#000000;" vertex="1" parent="1">
          <mxGeometry y="180" width="30" height="20" as="geometry" />
        </mxCell>
        <mxCell id="Jli_QhJXIMFWZJy_9Ah_-25" value="" style="endArrow=classic;html=1;rounded=0;exitX=0.5;exitY=1;exitDx=0;exitDy=0;entryX=0.5;entryY=0;entryDx=0;entryDy=0;" edge="1" parent="1" source="Jli_QhJXIMFWZJy_9Ah_-1" target="Jli_QhJXIMFWZJy_9Ah_-9">
          <mxGeometry width="50" height="50" relative="1" as="geometry">
            <mxPoint x="65" y="210" as="sourcePoint" />
            <mxPoint x="65" y="230" as="targetPoint" />
          </mxGeometry>
        </mxCell>
        <mxCell id="Jli_QhJXIMFWZJy_9Ah_-26" value="" style="endArrow=classic;html=1;rounded=0;exitX=0.5;exitY=1;exitDx=0;exitDy=0;entryX=0.5;entryY=0;entryDx=0;entryDy=0;" edge="1" parent="1" source="Jli_QhJXIMFWZJy_9Ah_-9" target="Jli_QhJXIMFWZJy_9Ah_-2">
          <mxGeometry width="50" height="50" relative="1" as="geometry">
            <mxPoint x="75" y="220" as="sourcePoint" />
            <mxPoint x="75" y="240" as="targetPoint" />
          </mxGeometry>
        </mxCell>
        <mxCell id="Jli_QhJXIMFWZJy_9Ah_-29" value="" style="endArrow=classic;html=1;rounded=0;exitX=0.5;exitY=1;exitDx=0;exitDy=0;jumpStyle=arc;edgeStyle=orthogonalEdgeStyle;curved=1;entryX=0.5;entryY=0;entryDx=0;entryDy=0;" edge="1" parent="1" source="Jli_QhJXIMFWZJy_9Ah_-2" target="Jli_QhJXIMFWZJy_9Ah_-22">
          <mxGeometry width="50" height="50" relative="1" as="geometry">
            <mxPoint x="153" y="110" as="sourcePoint" />
            <mxPoint x="20" y="80" as="targetPoint" />
            <Array as="points">
              <mxPoint x="85" y="90" />
            </Array>
          </mxGeometry>
        </mxCell>
        <mxCell id="Jli_QhJXIMFWZJy_9Ah_-31" value="" style="endArrow=classic;html=1;rounded=0;exitX=0.5;exitY=1;exitDx=0;exitDy=0;entryX=0.5;entryY=0;entryDx=0;entryDy=0;" edge="1" parent="1" source="Jli_QhJXIMFWZJy_9Ah_-22" target="Jli_QhJXIMFWZJy_9Ah_-8">
          <mxGeometry width="50" height="50" relative="1" as="geometry">
            <mxPoint x="70" y="210" as="sourcePoint" />
            <mxPoint x="120" y="160" as="targetPoint" />
          </mxGeometry>
        </mxCell>
        <mxCell id="Jli_QhJXIMFWZJy_9Ah_-32" value="" style="endArrow=classic;html=1;rounded=0;exitX=0.5;exitY=1;exitDx=0;exitDy=0;entryX=0.5;entryY=0;entryDx=0;entryDy=0;" edge="1" parent="1" source="Jli_QhJXIMFWZJy_9Ah_-22" target="Jli_QhJXIMFWZJy_9Ah_-7">
          <mxGeometry width="50" height="50" relative="1" as="geometry">
            <mxPoint x="95" y="130" as="sourcePoint" />
            <mxPoint x="65" y="150" as="targetPoint" />
          </mxGeometry>
        </mxCell>
        <mxCell id="Jli_QhJXIMFWZJy_9Ah_-33" value="" style="endArrow=classic;html=1;rounded=0;exitX=0.5;exitY=1;exitDx=0;exitDy=0;entryX=0.5;entryY=0;entryDx=0;entryDy=0;" edge="1" parent="1" source="Jli_QhJXIMFWZJy_9Ah_-8" target="Jli_QhJXIMFWZJy_9Ah_-19">
          <mxGeometry width="50" height="50" relative="1" as="geometry">
            <mxPoint x="105" y="140" as="sourcePoint" />
            <mxPoint x="75" y="160" as="targetPoint" />
          </mxGeometry>
        </mxCell>
        <mxCell id="Jli_QhJXIMFWZJy_9Ah_-34" value="" style="endArrow=classic;html=1;rounded=0;exitX=0.5;exitY=1;exitDx=0;exitDy=0;entryX=0.5;entryY=0;entryDx=0;entryDy=0;" edge="1" parent="1" source="Jli_QhJXIMFWZJy_9Ah_-7" target="Jli_QhJXIMFWZJy_9Ah_-18">
          <mxGeometry width="50" height="50" relative="1" as="geometry">
            <mxPoint x="65" y="170" as="sourcePoint" />
            <mxPoint x="65" y="190" as="targetPoint" />
          </mxGeometry>
        </mxCell>
        <mxCell id="Jli_QhJXIMFWZJy_9Ah_-35" value="" style="endArrow=classic;html=1;rounded=0;exitX=0.5;exitY=1;exitDx=0;exitDy=0;entryX=0.5;entryY=0;entryDx=0;entryDy=0;" edge="1" parent="1" source="Jli_QhJXIMFWZJy_9Ah_-18" target="Jli_QhJXIMFWZJy_9Ah_-5">
          <mxGeometry width="50" height="50" relative="1" as="geometry">
            <mxPoint x="75" y="180" as="sourcePoint" />
            <mxPoint x="75" y="200" as="targetPoint" />
          </mxGeometry>
        </mxCell>
        <mxCell id="Jli_QhJXIMFWZJy_9Ah_-36" value="" style="endArrow=classic;html=1;rounded=0;exitX=0.5;exitY=1;exitDx=0;exitDy=0;entryX=0;entryY=0.5;entryDx=0;entryDy=0;" edge="1" parent="1" source="Jli_QhJXIMFWZJy_9Ah_-6" target="Jli_QhJXIMFWZJy_9Ah_-20">
          <mxGeometry width="50" height="50" relative="1" as="geometry">
            <mxPoint x="85" y="190" as="sourcePoint" />
            <mxPoint x="85" y="210" as="targetPoint" />
          </mxGeometry>
        </mxCell>
        <mxCell id="Jli_QhJXIMFWZJy_9Ah_-38" value="" style="endArrow=classic;html=1;rounded=0;entryX=1;entryY=0.5;entryDx=0;entryDy=0;exitX=0.5;exitY=1;exitDx=0;exitDy=0;" edge="1" parent="1" source="Jli_QhJXIMFWZJy_9Ah_-5" target="Jli_QhJXIMFWZJy_9Ah_-20">
          <mxGeometry width="50" height="50" relative="1" as="geometry">
            <mxPoint x="120" y="250" as="sourcePoint" />
            <mxPoint x="95" y="220" as="targetPoint" />
          </mxGeometry>
        </mxCell>
        <mxCell id="Jli_QhJXIMFWZJy_9Ah_-39" value="" style="endArrow=classic;html=1;rounded=0;exitX=0;exitY=1;exitDx=0;exitDy=0;entryX=0.5;entryY=1;entryDx=0;entryDy=0;edgeStyle=orthogonalEdgeStyle;curved=1;" edge="1" parent="1" source="Jli_QhJXIMFWZJy_9Ah_-6" target="Jli_QhJXIMFWZJy_9Ah_-24">
          <mxGeometry width="50" height="50" relative="1" as="geometry">
            <mxPoint x="70" y="210" as="sourcePoint" />
            <mxPoint x="120" y="160" as="targetPoint" />
          </mxGeometry>
        </mxCell>
        <mxCell id="Jli_QhJXIMFWZJy_9Ah_-40" value="" style="endArrow=classic;html=1;rounded=0;exitX=0.5;exitY=0;exitDx=0;exitDy=0;entryX=0;entryY=0;entryDx=0;entryDy=0;edgeStyle=orthogonalEdgeStyle;curved=1;" edge="1" parent="1" source="Jli_QhJXIMFWZJy_9Ah_-24" target="Jli_QhJXIMFWZJy_9Ah_-8">
          <mxGeometry width="50" height="50" relative="1" as="geometry">
            <mxPoint x="70" y="210" as="sourcePoint" />
            <mxPoint x="120" y="160" as="targetPoint" />
            <Array as="points">
              <mxPoint x="15" y="143" />
            </Array>
          </mxGeometry>
        </mxCell>
        <mxCell id="Jli_QhJXIMFWZJy_9Ah_-41" value="" style="endArrow=classic;html=1;rounded=0;exitX=0.5;exitY=1;exitDx=0;exitDy=0;entryX=0;entryY=0;entryDx=0;entryDy=0;" edge="1" parent="1" source="Jli_QhJXIMFWZJy_9Ah_-20" target="Jli_QhJXIMFWZJy_9Ah_-10">
          <mxGeometry width="50" height="50" relative="1" as="geometry">
            <mxPoint x="65" y="170" as="sourcePoint" />
            <mxPoint x="65" y="190" as="targetPoint" />
          </mxGeometry>
        </mxCell>
        <mxCell id="Jli_QhJXIMFWZJy_9Ah_-42" value="" style="endArrow=classic;html=1;rounded=0;exitX=0.5;exitY=1;exitDx=0;exitDy=0;entryX=0.5;entryY=0;entryDx=0;entryDy=0;" edge="1" parent="1" source="Jli_QhJXIMFWZJy_9Ah_-4" target="Jli_QhJXIMFWZJy_9Ah_-10">
          <mxGeometry width="50" height="50" relative="1" as="geometry">
            <mxPoint x="75" y="180" as="sourcePoint" />
            <mxPoint x="75" y="200" as="targetPoint" />
          </mxGeometry>
        </mxCell>
        <mxCell id="Jli_QhJXIMFWZJy_9Ah_-43" value="" style="endArrow=classic;html=1;rounded=0;exitX=0.5;exitY=1;exitDx=0;exitDy=0;entryX=0.5;entryY=0;entryDx=0;entryDy=0;" edge="1" parent="1" source="Jli_QhJXIMFWZJy_9Ah_-10" target="Jli_QhJXIMFWZJy_9Ah_-3">
          <mxGeometry width="50" height="50" relative="1" as="geometry">
            <mxPoint x="85" y="190" as="sourcePoint" />
            <mxPoint x="85" y="210" as="targetPoint" />
          </mxGeometry>
        </mxCell>
        <mxCell id="Jli_QhJXIMFWZJy_9Ah_-46" value="" style="shape=image;html=1;verticalAlign=top;verticalLabelPosition=bottom;labelBackgroundColor=#ffffff;imageAspect=0;aspect=fixed;image=https://cdn4.iconfinder.com/data/icons/essential-app-2/16/record-round-circle-dot-128.png" vertex="1" parent="1">
          <mxGeometry x="128.5" y="6" width="8" height="8" as="geometry" />
        </mxCell>
      </root>
    </mxGraphModel>
  </diagram>
</mxfile>
